<mxfile host="app.diagrams.net" modified="2023-12-01T11:35:26.906Z" agent="Mozilla/5.0 (Macintosh; Intel Mac OS X 10_15_7) AppleWebKit/537.36 (KHTML, like Gecko) Chrome/119.0.0.0 Safari/537.36" etag="IF4vLwpIUPKaiylnYkuq" version="22.1.5" type="github">
  <diagram name="Page-1" id="N3WZunzwXIaeDYp0I-YL">
    <mxGraphModel dx="1589" dy="2153" grid="0" gridSize="10" guides="1" tooltips="1" connect="1" arrows="1" fold="1" page="0" pageScale="1" pageWidth="850" pageHeight="1100" math="0" shadow="0">
      <root>
        <mxCell id="0" />
        <mxCell id="1" parent="0" />
        <mxCell id="0Ng6I6oco_0Fc2acD2ov-1" value="" style="rounded=1;whiteSpace=wrap;html=1;strokeColor=default;align=center;verticalAlign=middle;fontFamily=Helvetica;fontSize=12;fontColor=default;fillColor=default;dashed=1;dashPattern=8 8;" parent="1" vertex="1">
          <mxGeometry x="-192" y="-1203" width="827" height="601" as="geometry" />
        </mxCell>
        <mxCell id="0Ng6I6oco_0Fc2acD2ov-2" value="&lt;meta charset=&quot;utf-8&quot;&gt;&lt;span style=&quot;color: rgb(0, 0, 0); font-family: Helvetica; font-size: 12px; font-style: normal; font-variant-ligatures: normal; font-variant-caps: normal; font-weight: 400; letter-spacing: normal; orphans: 2; text-align: left; text-indent: 0px; text-transform: none; widows: 2; word-spacing: 0px; -webkit-text-stroke-width: 0px; background-color: rgb(255, 255, 255); text-decoration-thickness: initial; text-decoration-style: initial; text-decoration-color: initial; float: none; display: inline !important;&quot;&gt;Microservices Databases (Orders, Customers, Payments)&lt;/span&gt;" style="rounded=1;whiteSpace=wrap;html=1;fillStyle=dots;dashed=1;dashPattern=8 8;" parent="1" vertex="1">
          <mxGeometry x="-142" y="-1133" width="320" height="64" as="geometry" />
        </mxCell>
        <mxCell id="0Ng6I6oco_0Fc2acD2ov-3" value="[GCP Project: Data&lt;br&gt;VPC Subnet: Data]" style="text;html=1;strokeColor=none;fillColor=none;align=center;verticalAlign=middle;whiteSpace=wrap;rounded=0;" parent="1" vertex="1">
          <mxGeometry x="-72" y="-1162" width="178" height="23" as="geometry" />
        </mxCell>
        <mxCell id="0Ng6I6oco_0Fc2acD2ov-4" value="" style="rounded=1;whiteSpace=wrap;html=1;dashed=1;dashPattern=8 8;" parent="1" vertex="1">
          <mxGeometry x="-33" y="-926" width="547" height="289" as="geometry" />
        </mxCell>
        <mxCell id="0Ng6I6oco_0Fc2acD2ov-5" value="&lt;span style=&quot;color: rgb(0, 0, 0); font-family: Helvetica; font-size: 12px; font-style: normal; font-variant-ligatures: normal; font-variant-caps: normal; font-weight: 400; letter-spacing: normal; orphans: 2; text-align: left; text-indent: 0px; text-transform: none; widows: 2; word-spacing: 0px; -webkit-text-stroke-width: 0px; background-color: rgb(255, 255, 255); text-decoration-thickness: initial; text-decoration-style: initial; text-decoration-color: initial; float: none; display: inline !important;&quot;&gt;[GCP Project: DataWarehouse&lt;/span&gt;&lt;br style=&quot;border-color: var(--border-color); padding: 0px; margin: 0px; color: rgb(0, 0, 0); font-family: Helvetica; font-size: 12px; font-style: normal; font-variant-ligatures: normal; font-variant-caps: normal; font-weight: 400; letter-spacing: normal; orphans: 2; text-align: left; text-indent: 0px; text-transform: none; widows: 2; word-spacing: 0px; -webkit-text-stroke-width: 0px; background-color: rgb(255, 255, 255); text-decoration-thickness: initial; text-decoration-style: initial; text-decoration-color: initial;&quot;&gt;&lt;span style=&quot;color: rgb(0, 0, 0); font-family: Helvetica; font-size: 12px; font-style: normal; font-variant-ligatures: normal; font-variant-caps: normal; font-weight: 400; letter-spacing: normal; orphans: 2; text-align: left; text-indent: 0px; text-transform: none; widows: 2; word-spacing: 0px; -webkit-text-stroke-width: 0px; background-color: rgb(255, 255, 255); text-decoration-thickness: initial; text-decoration-style: initial; text-decoration-color: initial; float: none; display: inline !important;&quot;&gt;[VPC Subnet: DataWarehouse]&lt;/span&gt;" style="text;whiteSpace=wrap;html=1;fontSize=12;fontFamily=Helvetica;fontColor=default;" parent="1" vertex="1">
          <mxGeometry x="-5" y="-969" width="170" height="51" as="geometry" />
        </mxCell>
        <mxCell id="0Ng6I6oco_0Fc2acD2ov-6" value="" style="edgeStyle=orthogonalEdgeStyle;rounded=0;orthogonalLoop=1;jettySize=auto;html=1;fontFamily=Helvetica;fontSize=12;fontColor=default;dashed=1;" parent="1" source="0Ng6I6oco_0Fc2acD2ov-7" target="0Ng6I6oco_0Fc2acD2ov-9" edge="1">
          <mxGeometry relative="1" as="geometry" />
        </mxCell>
        <mxCell id="0Ng6I6oco_0Fc2acD2ov-7" value="&lt;span style=&quot;color: rgb(0, 0, 0); font-family: Helvetica; font-size: 12px; font-style: normal; font-variant-ligatures: normal; font-variant-caps: normal; font-weight: 400; letter-spacing: normal; orphans: 2; text-align: center; text-indent: 0px; text-transform: none; widows: 2; word-spacing: 0px; -webkit-text-stroke-width: 0px; background-color: rgb(255, 255, 255); text-decoration-thickness: initial; text-decoration-style: initial; text-decoration-color: initial; float: none; display: inline !important;&quot;&gt;Proxy Servers&amp;nbsp;&lt;/span&gt;" style="rounded=0;whiteSpace=wrap;html=1;strokeColor=default;align=center;verticalAlign=middle;fontFamily=Helvetica;fontSize=12;fontColor=default;fillColor=default;dashed=1;" parent="1" vertex="1">
          <mxGeometry x="14" y="-896" width="106" height="32" as="geometry" />
        </mxCell>
        <mxCell id="0Ng6I6oco_0Fc2acD2ov-8" style="edgeStyle=orthogonalEdgeStyle;rounded=0;orthogonalLoop=1;jettySize=auto;html=1;fontFamily=Helvetica;fontSize=12;fontColor=default;dashed=1;" parent="1" source="0Ng6I6oco_0Fc2acD2ov-9" target="0Ng6I6oco_0Fc2acD2ov-10" edge="1">
          <mxGeometry relative="1" as="geometry" />
        </mxCell>
        <mxCell id="0Ng6I6oco_0Fc2acD2ov-9" value="Cloud Datastream" style="rounded=0;whiteSpace=wrap;html=1;strokeColor=default;align=center;verticalAlign=middle;fontFamily=Helvetica;fontSize=12;fontColor=default;fillColor=default;dashed=1;" parent="1" vertex="1">
          <mxGeometry x="14" y="-812" width="106" height="39" as="geometry" />
        </mxCell>
        <mxCell id="0Ng6I6oco_0Fc2acD2ov-10" value="BigQuery" style="rounded=0;whiteSpace=wrap;html=1;strokeColor=default;align=center;verticalAlign=middle;fontFamily=Helvetica;fontSize=12;fontColor=default;fillColor=default;dashed=1;" parent="1" vertex="1">
          <mxGeometry x="193" y="-693" width="106" height="39" as="geometry" />
        </mxCell>
        <mxCell id="0Ng6I6oco_0Fc2acD2ov-11" style="edgeStyle=orthogonalEdgeStyle;rounded=0;orthogonalLoop=1;jettySize=auto;html=1;entryX=0.5;entryY=0;entryDx=0;entryDy=0;fontFamily=Helvetica;fontSize=12;fontColor=default;dashed=1;" parent="1" source="0Ng6I6oco_0Fc2acD2ov-12" target="0Ng6I6oco_0Fc2acD2ov-10" edge="1">
          <mxGeometry relative="1" as="geometry" />
        </mxCell>
        <mxCell id="0Ng6I6oco_0Fc2acD2ov-12" value="Cloud Composer (Apache Airflow)" style="rounded=0;whiteSpace=wrap;html=1;strokeColor=default;align=center;verticalAlign=middle;fontFamily=Helvetica;fontSize=12;fontColor=default;fillColor=default;dashed=1;" parent="1" vertex="1">
          <mxGeometry x="356" y="-896" width="106" height="39" as="geometry" />
        </mxCell>
        <mxCell id="0Ng6I6oco_0Fc2acD2ov-13" value="DBT Tool" style="rounded=0;whiteSpace=wrap;html=1;strokeColor=default;align=center;verticalAlign=middle;fontFamily=Helvetica;fontSize=12;fontColor=default;fillColor=default;dashed=1;" parent="1" vertex="1">
          <mxGeometry x="389" y="-693" width="106" height="39" as="geometry" />
        </mxCell>
        <mxCell id="0Ng6I6oco_0Fc2acD2ov-14" value="&amp;nbsp;# Orchestrates batch processing jobs from 3rd party sources.&lt;br style=&quot;border-color: var(--border-color); padding: 0px; margin: 0px; text-align: left; font-size: 10px;&quot;&gt;&lt;span style=&quot;text-align: left; font-size: 10px;&quot;&gt;&amp;nbsp; # Processes and prepares data for BigQuery.&lt;/span&gt;" style="text;html=1;strokeColor=none;fillColor=none;align=center;verticalAlign=middle;whiteSpace=wrap;rounded=0;fontSize=10;fontFamily=Helvetica;fontColor=default;" parent="1" vertex="1">
          <mxGeometry x="233.75" y="-864" width="287" height="53" as="geometry" />
        </mxCell>
        <mxCell id="0Ng6I6oco_0Fc2acD2ov-15" value="&amp;nbsp;# Streams changes from microservices databases in real-time.&lt;br style=&quot;border-color: var(--border-color); padding: 0px; margin: 0px; text-align: left; font-size: 10px;&quot;&gt;&lt;span style=&quot;text-align: left; font-size: 10px;&quot;&gt;# Captures data for immediate analysis and raw storage.&lt;/span&gt;" style="text;html=1;strokeColor=none;fillColor=none;align=center;verticalAlign=middle;whiteSpace=wrap;rounded=0;fontSize=10;fontFamily=Helvetica;fontColor=default;" parent="1" vertex="1">
          <mxGeometry x="-59" y="-773" width="332" height="30" as="geometry" />
        </mxCell>
        <mxCell id="0Ng6I6oco_0Fc2acD2ov-16" value="# Real-time transactional data from microservices." style="text;html=1;align=center;verticalAlign=middle;resizable=0;points=[];autosize=1;strokeColor=none;fillColor=none;fontSize=10;fontFamily=Helvetica;fontColor=default;" parent="1" vertex="1">
          <mxGeometry x="-114" y="-1098" width="240" height="24" as="geometry" />
        </mxCell>
        <mxCell id="0Ng6I6oco_0Fc2acD2ov-17" value="&lt;font style=&quot;font-size: 10px;&quot;&gt;# Transforms data within BigQuery &lt;br&gt;using SQL for advanced analytics&lt;/font&gt;" style="text;html=1;align=center;verticalAlign=middle;resizable=0;points=[];autosize=1;strokeColor=none;fillColor=none;fontSize=12;fontFamily=Helvetica;fontColor=default;" parent="1" vertex="1">
          <mxGeometry x="339" y="-737" width="171" height="41" as="geometry" />
        </mxCell>
        <mxCell id="0Ng6I6oco_0Fc2acD2ov-18" value="3rd Party Sources (APIs, Google Sheets)" style="rounded=1;whiteSpace=wrap;html=1;fillStyle=dots;dashed=1;dashPattern=8 8;" parent="1" vertex="1">
          <mxGeometry x="228" y="-1133" width="302" height="64" as="geometry" />
        </mxCell>
        <mxCell id="0Ng6I6oco_0Fc2acD2ov-19" value="# External data sources for batch processing." style="text;html=1;align=center;verticalAlign=middle;resizable=0;points=[];autosize=1;strokeColor=none;fillColor=none;fontSize=10;fontFamily=Helvetica;fontColor=default;" parent="1" vertex="1">
          <mxGeometry x="269.5" y="-1093" width="219" height="24" as="geometry" />
        </mxCell>
        <mxCell id="0Ng6I6oco_0Fc2acD2ov-20" style="edgeStyle=orthogonalEdgeStyle;rounded=0;orthogonalLoop=1;jettySize=auto;html=1;entryX=0.437;entryY=0;entryDx=0;entryDy=0;entryPerimeter=0;fontFamily=Helvetica;fontSize=12;fontColor=default;dashed=1;" parent="1" source="0Ng6I6oco_0Fc2acD2ov-2" target="0Ng6I6oco_0Fc2acD2ov-4" edge="1">
          <mxGeometry relative="1" as="geometry" />
        </mxCell>
        <mxCell id="0Ng6I6oco_0Fc2acD2ov-21" style="edgeStyle=orthogonalEdgeStyle;rounded=0;orthogonalLoop=1;jettySize=auto;html=1;entryX=0.516;entryY=0.008;entryDx=0;entryDy=0;entryPerimeter=0;fontFamily=Helvetica;fontSize=12;fontColor=default;dashed=1;" parent="1" source="0Ng6I6oco_0Fc2acD2ov-18" target="0Ng6I6oco_0Fc2acD2ov-4" edge="1">
          <mxGeometry relative="1" as="geometry" />
        </mxCell>
        <mxCell id="0Ng6I6oco_0Fc2acD2ov-22" value="# Data flows through a secure connection." style="text;whiteSpace=wrap;fontSize=12;fontFamily=Helvetica;fontColor=default;" parent="1" vertex="1">
          <mxGeometry x="106" y="-1035" width="252" height="36" as="geometry" />
        </mxCell>
        <mxCell id="0Ng6I6oco_0Fc2acD2ov-23" value="" style="endArrow=classic;html=1;rounded=0;fontFamily=Helvetica;fontSize=12;fontColor=default;entryX=0.396;entryY=0;entryDx=0;entryDy=0;entryPerimeter=0;exitX=0.431;exitY=0.004;exitDx=0;exitDy=0;exitPerimeter=0;dashed=1;" parent="1" edge="1">
          <mxGeometry width="50" height="50" relative="1" as="geometry">
            <mxPoint x="206.99700000000007" y="-926.0039999999999" as="sourcePoint" />
            <mxPoint x="60.216000000000115" y="-897.02" as="targetPoint" />
          </mxGeometry>
        </mxCell>
        <mxCell id="0Ng6I6oco_0Fc2acD2ov-24" value="" style="endArrow=classic;html=1;rounded=0;fontFamily=Helvetica;fontSize=12;fontColor=default;exitX=0.517;exitY=0;exitDx=0;exitDy=0;exitPerimeter=0;entryX=0.17;entryY=-0.077;entryDx=0;entryDy=0;entryPerimeter=0;dashed=1;" parent="1" source="0Ng6I6oco_0Fc2acD2ov-4" target="0Ng6I6oco_0Fc2acD2ov-12" edge="1">
          <mxGeometry width="50" height="50" relative="1" as="geometry">
            <mxPoint x="147" y="-875" as="sourcePoint" />
            <mxPoint x="364" y="-903" as="targetPoint" />
          </mxGeometry>
        </mxCell>
        <mxCell id="0Ng6I6oco_0Fc2acD2ov-25" value="Data Ingestion" style="text;html=1;strokeColor=#82b366;fillColor=#d5e8d4;align=center;verticalAlign=middle;whiteSpace=wrap;rounded=0;fontSize=13;fontFamily=Helvetica;fontStyle=1" parent="1" vertex="1">
          <mxGeometry x="182" y="-985" width="96" height="30" as="geometry" />
        </mxCell>
        <mxCell id="0Ng6I6oco_0Fc2acD2ov-26" value="&lt;b&gt;Data Sources&lt;/b&gt;" style="text;html=1;strokeColor=#82b366;fillColor=#d5e8d4;align=center;verticalAlign=middle;whiteSpace=wrap;rounded=0;fontSize=13;fontFamily=Helvetica;" parent="1" vertex="1">
          <mxGeometry x="169" y="-1116" width="96" height="30" as="geometry" />
        </mxCell>
        <mxCell id="0Ng6I6oco_0Fc2acD2ov-27" value="Data Warehouse" style="text;html=1;strokeColor=#82b366;fillColor=#d5e8d4;align=center;verticalAlign=middle;whiteSpace=wrap;rounded=0;fontSize=13;fontFamily=Helvetica;fontStyle=1" parent="1" vertex="1">
          <mxGeometry x="191" y="-743" width="110" height="30" as="geometry" />
        </mxCell>
        <mxCell id="0Ng6I6oco_0Fc2acD2ov-28" value="" style="endArrow=classic;startArrow=classic;html=1;rounded=0;fontFamily=Helvetica;fontSize=12;fontColor=default;entryX=0;entryY=0.5;entryDx=0;entryDy=0;exitX=1;exitY=0.5;exitDx=0;exitDy=0;dashed=1;" parent="1" source="0Ng6I6oco_0Fc2acD2ov-10" target="0Ng6I6oco_0Fc2acD2ov-13" edge="1">
          <mxGeometry width="50" height="50" relative="1" as="geometry">
            <mxPoint x="308" y="-635" as="sourcePoint" />
            <mxPoint x="358" y="-685" as="targetPoint" />
          </mxGeometry>
        </mxCell>
        <mxCell id="0Ng6I6oco_0Fc2acD2ov-29" value="[HOST VPC]" style="text;html=1;strokeColor=none;fillColor=none;align=center;verticalAlign=middle;whiteSpace=wrap;rounded=0;" parent="1" vertex="1">
          <mxGeometry x="-176" y="-1197" width="178" height="23" as="geometry" />
        </mxCell>
        <mxCell id="0Ng6I6oco_0Fc2acD2ov-30" value="&lt;font style=&quot;font-size: 10px;&quot;&gt;# Enhances security and manages traffic between &lt;br&gt;dbs &amp;amp; the streaming service (Cloud Datastream)&lt;/font&gt;" style="text;html=1;align=center;verticalAlign=middle;resizable=0;points=[];autosize=1;strokeColor=none;fillColor=none;rotation=0;" parent="1" vertex="1">
          <mxGeometry x="-35" y="-868" width="239" height="41" as="geometry" />
        </mxCell>
        <mxCell id="1zphvdrA46w6vMlSNwn0-3" value="- Microservices Databases:&#xa;  - GCP: Cloud SQL&#xa;  - AWS: Amazon RDS or Amazon Aurora (for relational databases)&#xa;&#xa;- Compute Engine VM Instance (as a proxy server):&#xa;  - GCP: Compute Engine VM Instance&#xa;  - AWS: EC2 Instance&#xa;&#xa;- Cloud Datastream (for data ingestion and streaming):&#xa;  - GCP: Cloud Datastream&#xa;  - AWS: AWS DMS (Database Migration Service) for data migration, Amazon Kinesis Data Streams for real-time data streaming&#xa;&#xa;- Cloud Composer (Apache Airflow):&#xa;  - GCP: Cloud Composer&#xa;  - AWS: Amazon Managed Workflows for Apache Airflow (MWAA)&#xa;&#xa;- BigQuery (Data Warehouse):&#xa;  - GCP: BigQuery&#xa;  - AWS: Amazon Redshift&#xa;&#xa;- Cloud Storage (for raw data storage):&#xa;  - GCP: Cloud Storage&#xa;  - AWS: Amazon S3 (Simple Storage Service)&#xa;&#xa;- Shared VPC:&#xa;  - GCP: Shared VPC&#xa;  - AWS: AWS Resource Access Manager (for sharing resources across accounts) with VPC Peering (for network connectivity)&#xa;&#xa;- Subnets:&#xa;  - GCP: Subnets within VPC&#xa;  - AWS: Subnets within Amazon VPC" style="text;whiteSpace=wrap;html=1;" vertex="1" parent="1">
          <mxGeometry x="-149" y="-578" width="550" height="497" as="geometry" />
        </mxCell>
      </root>
    </mxGraphModel>
  </diagram>
</mxfile>
